<svg width="54" height="55" viewBox="0 0 54 55" fill="none" xmlns="http://www.w3.org/2000/svg">
<path fill-rule="evenodd" clip-rule="evenodd" d="M25.0913 6.69084C26.1457 5.63642 27.8552 5.63642 28.9097 6.69084L47.8097 25.5908C48.5819 26.363 48.8129 27.5243 48.3949 28.5333C47.977 29.5422 46.9925 30.2 45.9005 30.2H43.2005V46.4C43.2005 47.8912 41.9916 49.1 40.5005 49.1H35.1005C33.6093 49.1 32.4005 47.8912 32.4005 46.4V38.3C32.4005 36.8089 31.1916 35.6 29.7005 35.6H24.3005C22.8093 35.6 21.6005 36.8089 21.6005 38.3V46.4C21.6005 47.8912 20.3916 49.1 18.9005 49.1H13.5005C12.0093 49.1 10.8005 47.8912 10.8005 46.4V30.2H8.10047C7.00842 30.2 6.0239 29.5422 5.60599 28.5333C5.18809 27.5243 5.41909 26.363 6.19128 25.5908L25.0913 6.69084Z" fill="#4457FF"/>
</svg>
